<svg xmlns="http://www.w3.org/2000/svg" viewBox="0 0 385.82 128.36"><defs><style>.cls-pucmm1{fill:#fff;}.cls-pucmm2{fill:#d2d2d2;}.cls-pucmm3{fill:#ffe700;}.cls-pucmm3,.cls-pucmm5,.cls-pucmm7{fill-rule:evenodd;}.cls-pucmm4,.cls-pucmm5{fill:#e52713;}.cls-pucmm6{fill:#0053a1;}.cls-pucmm7{fill:#f7e40d;}</style></defs><title>logo-pucmm</title><g id="Capa_2" data-name="Capa 2"><g id="Layer_1" data-name="Layer 1"><ellipse class="cls-pucmm1" cx="64.18" cy="64.18" rx="51.24" ry="51.13"></ellipse><path d="M179.46,44.73q-4.13,3.45-11.81,3.45h-9.8V65.1h-9.77V18h20.21q7,0,11.15,3.64t4.16,11.27Q183.59,41.28,179.46,44.73Zm-7.51-17a7.92,7.92,0,0,0-5.23-1.56h-8.87V40.07h8.87a7.51,7.51,0,0,0,5.23-1.69q1.87-1.69,1.87-5.37T171.95,27.77Z"></path><path d="M191.48,18h10V46.94q0,4.85,1.14,7.08,1.78,4,7.77,4t7.73-4q1.15-2.23,1.15-7.08V18h10V47q0,7.5-2.33,11.69-4.34,7.67-16.55,7.66t-16.58-7.66q-2.33-4.18-2.33-11.69Z"></path><path d="M243.21,22.95a19.38,19.38,0,0,1,14.47-5.81q11.75,0,17.19,7.79a17,17,0,0,1,3.22,8.78h-9.83a13.4,13.4,0,0,0-2.41-5.11q-2.63-3.07-7.79-3.07a9.6,9.6,0,0,0-8.29,4.33q-3,4.33-3,12.25T249.93,54a10,10,0,0,0,8.14,3.94q5.06,0,7.72-3.39a14.78,14.78,0,0,0,2.43-5.46H278a21.19,21.19,0,0,1-6.46,12.52q-5.2,4.82-13.32,4.82-10.05,0-15.8-6.52t-5.75-17.95Q236.67,29.62,243.21,22.95Z"></path><path d="M317.18,18h14.15V65.1h-9.17V33.26q0-1.37,0-3.85t0-3.82l-8.92,39.5h-9.56l-8.86-39.5q0,1.34,0,3.82t0,3.85V65.1h-9.17V18H300.1l8.57,37Z"></path><path d="M371.66,18h14.15V65.1h-9.17V33.26q0-1.37,0-3.85t0-3.82l-8.92,39.5h-9.56l-8.86-39.5q0,1.34,0,3.82t0,3.85V65.1h-9.17V18h14.31l8.57,37Z"></path><path d="M150.63,77.61h5.25a3.56,3.56,0,0,1,2.51.88,3.2,3.2,0,0,1,1,2.48,3.61,3.61,0,0,1-.85,2.39,3.22,3.22,0,0,1-2.61,1h-3.66v5h-1.59Zm6.16,1.61a3.41,3.41,0,0,0-1.43-.25h-3.14V83h3.14a3,3,0,0,0,1.72-.46,1.81,1.81,0,0,0,.66-1.6A1.77,1.77,0,0,0,156.79,79.22Z"></path><path d="M167.91,81.64A4.32,4.32,0,0,1,169,84.88a5.58,5.58,0,0,1-1,3.41,3.6,3.6,0,0,1-3.1,1.35,3.49,3.49,0,0,1-2.78-1.19,4.72,4.72,0,0,1-1-3.2,5.12,5.12,0,0,1,1.09-3.43,3.64,3.64,0,0,1,2.92-1.28A3.84,3.84,0,0,1,167.91,81.64ZM167,87.32a5.42,5.42,0,0,0,.52-2.4,4.32,4.32,0,0,0-.38-1.95,2.13,2.13,0,0,0-2.07-1.18,2,2,0,0,0-1.89,1,4.7,4.7,0,0,0-.59,2.43,4.09,4.09,0,0,0,.59,2.27,2.08,2.08,0,0,0,1.88.91A2,2,0,0,0,167,87.32Z"></path><path d="M171.33,80.79h1.36V82A3.84,3.84,0,0,1,174,80.92a3.43,3.43,0,0,1,1.51-.33,2.49,2.49,0,0,1,2.46,1.27,4.52,4.52,0,0,1,.35,2v5.48h-1.46V83.95a2.94,2.94,0,0,0-.23-1.26,1.41,1.41,0,0,0-1.39-.8,2.9,2.9,0,0,0-.84.1,2.17,2.17,0,0,0-1,.7,2.13,2.13,0,0,0-.47.87,6,6,0,0,0-.11,1.29v4.48h-1.44Z"></path><path d="M181.24,78.4h1.45v2.39h1.37V82h-1.37v5.58a.61.61,0,0,0,.3.6,1.3,1.3,0,0,0,.56.09h.22l.28,0v1.14a3.36,3.36,0,0,1-.52.1,5.05,5.05,0,0,1-.58,0,1.56,1.56,0,0,1-1.37-.52,2.29,2.29,0,0,1-.36-1.34V82h-1.16V80.79h1.16Z"></path><path d="M186,77.61h1.46v1.63H186Zm0,3.22h1.46v8.51H186Z"></path><path d="M190.84,78.18a2.2,2.2,0,0,1,1.94-.74h.28l.33,0v1.31l-.33,0h-.19c-.44,0-.71.11-.79.34a6.66,6.66,0,0,0-.13,1.73h1.44V82H192v7.38h-1.42V82h-1.19V80.82h1.19V79.48A2.55,2.55,0,0,1,190.84,78.18Z"></path><path d="M195.24,77.61h1.46v1.63h-1.46Zm0,3.22h1.46v8.51h-1.46Z"></path><path d="M205,81.24a3.38,3.38,0,0,1,1.09,2.42h-1.4a2.58,2.58,0,0,0-.58-1.31,1.84,1.84,0,0,0-1.46-.52,2,2,0,0,0-2,1.34,5.3,5.3,0,0,0-.38,2.15,4,4,0,0,0,.54,2.16,1.86,1.86,0,0,0,1.71.88A1.88,1.88,0,0,0,204,87.8a3,3,0,0,0,.72-1.49h1.4a3.38,3.38,0,0,1-3.65,3.27,3.27,3.27,0,0,1-2.67-1.23,4.69,4.69,0,0,1-1-3.06,5.17,5.17,0,0,1,1.09-3.51,3.53,3.53,0,0,1,2.79-1.25A3.73,3.73,0,0,1,205,81.24Z"></path><path d="M208.09,77.61h1.46v1.63h-1.46Zm0,3.22h1.46v8.51h-1.46Z"></path><path d="M216.83,84.16a.78.78,0,0,0,.66-.42,1.26,1.26,0,0,0,.1-.55,1.18,1.18,0,0,0-.52-1.07,2.8,2.8,0,0,0-1.5-.33,1.89,1.89,0,0,0-1.59.61,2,2,0,0,0-.34,1H212.3a2.48,2.48,0,0,1,1-2.21,4.2,4.2,0,0,1,2.28-.62,4.65,4.65,0,0,1,2.45.57,2,2,0,0,1,.93,1.79v4.93a.64.64,0,0,0,.09.36.45.45,0,0,0,.39.13h.21l.26,0v1.06a4,4,0,0,1-.51.12,3.82,3.82,0,0,1-.48,0,1.18,1.18,0,0,1-1.08-.53,2,2,0,0,1-.25-.79,3.7,3.7,0,0,1-1.26,1,3.91,3.91,0,0,1-1.81.42,2.69,2.69,0,0,1-1.95-.72,2.39,2.39,0,0,1-.75-1.8,2.33,2.33,0,0,1,.74-1.84,3.55,3.55,0,0,1,1.95-.8Zm-3,3.88a1.69,1.69,0,0,0,1.08.36,3.28,3.28,0,0,0,1.47-.35,2,2,0,0,0,1.2-1.91V85a2.41,2.41,0,0,1-.68.28,5.83,5.83,0,0,1-.81.16l-.87.11a3.32,3.32,0,0,0-1.17.33,1.27,1.27,0,0,0-.67,1.2A1.18,1.18,0,0,0,213.81,88Z"></path><path d="M228.84,77.61v7.25a4.26,4.26,0,0,0,.48,2.12,2.54,2.54,0,0,0,2.42,1.28,2.85,2.85,0,0,0,2.77-1.38,4.38,4.38,0,0,0,.39-2V77.61h1.6v6.59a7.61,7.61,0,0,1-.58,3.33q-1.08,2.12-4.05,2.12t-4-2.12a7.56,7.56,0,0,1-.59-3.33V77.61Z"></path><path d="M239.26,80.79h1.37V82a3.83,3.83,0,0,1,1.28-1.08,3.43,3.43,0,0,1,1.51-.33,2.49,2.49,0,0,1,2.46,1.27,4.54,4.54,0,0,1,.35,2v5.48h-1.46V83.95a2.91,2.91,0,0,0-.23-1.26,1.4,1.4,0,0,0-1.39-.8,2.9,2.9,0,0,0-.84.1,2.17,2.17,0,0,0-1,.7,2.14,2.14,0,0,0-.47.87,5.92,5.92,0,0,0-.11,1.29v4.48h-1.44Z"></path><path d="M248.88,77.61h1.46v1.63h-1.46Zm0,3.22h1.46v8.51h-1.46Z"></path><path d="M253.74,80.79l2.28,7,2.38-7H260l-3.22,8.55h-1.53l-3.15-8.55Z"></path><path d="M267,81a3.22,3.22,0,0,1,1.29,1.11,3.79,3.79,0,0,1,.57,1.51,9.88,9.88,0,0,1,.13,1.88h-6.22a3.72,3.72,0,0,0,.61,2.09,2,2,0,0,0,1.77.79,2.26,2.26,0,0,0,1.78-.75,2.56,2.56,0,0,0,.53-1h1.41a3,3,0,0,1-.37,1,3.78,3.78,0,0,1-.7.95,3.33,3.33,0,0,1-1.61.86,4.86,4.86,0,0,1-1.16.13,3.55,3.55,0,0,1-2.69-1.16,4.53,4.53,0,0,1-1.1-3.25,4.94,4.94,0,0,1,1.11-3.34,3.65,3.65,0,0,1,2.9-1.29A3.85,3.85,0,0,1,267,81Zm.52,3.36a3.76,3.76,0,0,0-.41-1.49,2.06,2.06,0,0,0-2-1,2.15,2.15,0,0,0-1.65.71,2.71,2.71,0,0,0-.71,1.82Z"></path><path d="M271.39,80.79h1.37v1.48a3.25,3.25,0,0,1,.82-1,2.12,2.12,0,0,1,1.51-.62h.13l.33,0v1.52l-.23,0h-.24a2,2,0,0,0-1.67.7,2.43,2.43,0,0,0-.58,1.61v4.92h-1.44Z"></path><path d="M278.18,86.65a2.07,2.07,0,0,0,.37,1.1,2.34,2.34,0,0,0,1.92.69,2.89,2.89,0,0,0,1.43-.35,1.15,1.15,0,0,0,.62-1.08.92.92,0,0,0-.5-.84,5.93,5.93,0,0,0-1.25-.41l-1.16-.29a5.67,5.67,0,0,1-1.64-.61,1.81,1.81,0,0,1-.94-1.61,2.46,2.46,0,0,1,.89-2,3.58,3.58,0,0,1,2.38-.75,3.33,3.33,0,0,1,2.82,1.13,2.46,2.46,0,0,1,.53,1.55H282.3a1.63,1.63,0,0,0-.35-.88,2.29,2.29,0,0,0-1.76-.56,2.16,2.16,0,0,0-1.26.31,1,1,0,0,0-.43.82,1,1,0,0,0,.56.89,3.46,3.46,0,0,0,1,.35l1,.23a7.51,7.51,0,0,1,2.11.73,1.92,1.92,0,0,1,.84,1.73,2.64,2.64,0,0,1-.87,2,3.77,3.77,0,0,1-2.67.83,3.61,3.61,0,0,1-2.74-.87,3.24,3.24,0,0,1-.86-2.14Z"></path><path d="M286,77.61h1.46v1.63H286Zm0,3.22h1.46v8.51H286Z"></path><path d="M294.88,81a3.86,3.86,0,0,1,.87.84V77.57h1.38V89.34h-1.29V88.15a3.07,3.07,0,0,1-1.18,1.14,3.4,3.4,0,0,1-1.57.35,3.16,3.16,0,0,1-2.46-1.2,4.71,4.71,0,0,1-1-3.2,5.53,5.53,0,0,1,.95-3.24,3.11,3.11,0,0,1,2.72-1.37A3,3,0,0,1,294.88,81Zm-3.21,6.41a2,2,0,0,0,1.86.92,2,2,0,0,0,1.63-.86,4.07,4.07,0,0,0,.64-2.46,3.65,3.65,0,0,0-.66-2.4,2.06,2.06,0,0,0-1.63-.78,2.15,2.15,0,0,0-1.75.83,3.82,3.82,0,0,0-.67,2.44A4.27,4.27,0,0,0,291.67,87.46Z"></path><path d="M304.38,84.16a.78.78,0,0,0,.66-.42,1.25,1.25,0,0,0,.1-.55,1.18,1.18,0,0,0-.52-1.07,2.81,2.81,0,0,0-1.5-.33,1.89,1.89,0,0,0-1.59.61,2,2,0,0,0-.34,1h-1.34a2.48,2.48,0,0,1,1-2.21,4.2,4.2,0,0,1,2.28-.62,4.65,4.65,0,0,1,2.45.57,2,2,0,0,1,.94,1.79v4.93a.64.64,0,0,0,.09.36.45.45,0,0,0,.39.13h.21l.25,0v1.06a3.89,3.89,0,0,1-.51.12,3.82,3.82,0,0,1-.48,0,1.18,1.18,0,0,1-1.08-.53,2.05,2.05,0,0,1-.25-.79,3.68,3.68,0,0,1-1.26,1,3.92,3.92,0,0,1-1.81.42,2.69,2.69,0,0,1-1.94-.72,2.39,2.39,0,0,1-.75-1.8,2.33,2.33,0,0,1,.74-1.84,3.54,3.54,0,0,1,1.95-.8Zm-3,3.88a1.69,1.69,0,0,0,1.08.36,3.27,3.27,0,0,0,1.47-.35,2,2,0,0,0,1.2-1.91V85a2.43,2.43,0,0,1-.68.28,5.83,5.83,0,0,1-.81.16l-.87.11a3.33,3.33,0,0,0-1.17.33,1.27,1.27,0,0,0-.67,1.2A1.18,1.18,0,0,0,301.35,88Z"></path><path d="M314.11,81a3.87,3.87,0,0,1,.87.84V77.57h1.38V89.34h-1.29V88.15a3.1,3.1,0,0,1-1.19,1.14,3.38,3.38,0,0,1-1.56.35,3.16,3.16,0,0,1-2.47-1.2,4.71,4.71,0,0,1-1-3.2,5.53,5.53,0,0,1,1-3.24,3.1,3.1,0,0,1,2.71-1.37A3,3,0,0,1,314.11,81Zm-3.21,6.41a2,2,0,0,0,1.86.92,1.94,1.94,0,0,0,1.63-.86,4.06,4.06,0,0,0,.64-2.46,3.65,3.65,0,0,0-.66-2.4,2.05,2.05,0,0,0-1.63-.78,2.14,2.14,0,0,0-1.75.83,3.82,3.82,0,0,0-.67,2.44A4.25,4.25,0,0,0,310.9,87.46Z"></path><path d="M332.59,78.46a4.18,4.18,0,0,1,1.35,2.67h-1.55a3,3,0,0,0-3.2-2.46,3.44,3.44,0,0,0-2.75,1.22,5.63,5.63,0,0,0-1,3.73,5.49,5.49,0,0,0,.95,3.34,3.27,3.27,0,0,0,2.82,1.28,3,3,0,0,0,2.63-1.35A5.19,5.19,0,0,0,332.5,85H334a5.35,5.35,0,0,1-1.36,3.11A4.8,4.8,0,0,1,329,89.65a4.87,4.87,0,0,1-3.39-1.24q-1.81-1.64-1.81-5.06a6.52,6.52,0,0,1,1.35-4.26,4.93,4.93,0,0,1,4-1.81A4.73,4.73,0,0,1,332.59,78.46Z"></path><path d="M341,84.16a.78.78,0,0,0,.66-.42,1.26,1.26,0,0,0,.1-.55,1.18,1.18,0,0,0-.52-1.07,2.8,2.8,0,0,0-1.49-.33,1.9,1.9,0,0,0-1.59.61,2,2,0,0,0-.34,1h-1.34a2.48,2.48,0,0,1,1-2.21,4.21,4.21,0,0,1,2.29-.62,4.66,4.66,0,0,1,2.45.57,2,2,0,0,1,.93,1.79v4.93a.62.62,0,0,0,.09.36.44.44,0,0,0,.38.13h.22l.26,0v1.06a4,4,0,0,1-.51.12,3.82,3.82,0,0,1-.48,0A1.18,1.18,0,0,1,342,89a2,2,0,0,1-.25-.79,3.67,3.67,0,0,1-1.26,1,3.91,3.91,0,0,1-1.81.42,2.7,2.7,0,0,1-1.94-.72,2.39,2.39,0,0,1-.75-1.8,2.33,2.33,0,0,1,.74-1.84,3.55,3.55,0,0,1,1.95-.8ZM338,88a1.69,1.69,0,0,0,1.08.36,3.27,3.27,0,0,0,1.47-.35,2,2,0,0,0,1.2-1.91V85a2.45,2.45,0,0,1-.68.28,5.86,5.86,0,0,1-.82.16l-.87.11a3.29,3.29,0,0,0-1.17.33,1.27,1.27,0,0,0-.67,1.2A1.18,1.18,0,0,0,338,88Z"></path><path d="M346.33,78.4h1.45v2.39h1.37V82h-1.37v5.58a.6.6,0,0,0,.3.6,1.31,1.31,0,0,0,.56.09h.22l.28,0v1.14a3.36,3.36,0,0,1-.52.1,5.06,5.06,0,0,1-.58,0,1.56,1.56,0,0,1-1.37-.52,2.29,2.29,0,0,1-.36-1.34V82h-1.16V80.79h1.16Z"></path><path d="M357.31,81.64a4.32,4.32,0,0,1,1.13,3.24,5.58,5.58,0,0,1-1,3.41,3.6,3.6,0,0,1-3.1,1.35,3.49,3.49,0,0,1-2.78-1.19,4.72,4.72,0,0,1-1-3.2,5.12,5.12,0,0,1,1.09-3.43,3.63,3.63,0,0,1,2.92-1.28A3.84,3.84,0,0,1,357.31,81.64Zm-.89,5.68a5.41,5.41,0,0,0,.53-2.4,4.34,4.34,0,0,0-.38-1.95,2.13,2.13,0,0,0-2.07-1.18,2,2,0,0,0-1.9,1,4.73,4.73,0,0,0-.59,2.43,4.11,4.11,0,0,0,.59,2.27,2.09,2.09,0,0,0,1.88.91A2,2,0,0,0,356.41,87.32Zm-.18-10-2.13,2.31H353l1.46-2.31Z"></path><path d="M360.77,77.61h1.44V89.34h-1.44Z"></path><path d="M364.89,77.61h1.46v1.63h-1.46Zm0,3.22h1.46v8.51h-1.46Z"></path><path d="M374.69,81.24a3.37,3.37,0,0,1,1.09,2.42h-1.4a2.56,2.56,0,0,0-.58-1.31,1.84,1.84,0,0,0-1.46-.52,2,2,0,0,0-2,1.34,5.31,5.31,0,0,0-.38,2.15,4,4,0,0,0,.54,2.16,2.11,2.11,0,0,0,3.13.33,3,3,0,0,0,.72-1.49h1.4a3.38,3.38,0,0,1-3.65,3.27,3.27,3.27,0,0,1-2.67-1.23,4.7,4.7,0,0,1-1-3.06,5.16,5.16,0,0,1,1.1-3.51,3.53,3.53,0,0,1,2.79-1.25A3.74,3.74,0,0,1,374.69,81.24Z"></path><path d="M382.32,84.16a.78.78,0,0,0,.66-.42,1.24,1.24,0,0,0,.1-.55,1.18,1.18,0,0,0-.52-1.07,2.8,2.8,0,0,0-1.5-.33,1.89,1.89,0,0,0-1.59.61,2,2,0,0,0-.34,1h-1.34a2.48,2.48,0,0,1,1-2.21,4.2,4.2,0,0,1,2.28-.62,4.65,4.65,0,0,1,2.45.57,2,2,0,0,1,.93,1.79v4.93a.65.65,0,0,0,.09.36.45.45,0,0,0,.39.13h.21l.26,0v1.06a4,4,0,0,1-.51.12,3.82,3.82,0,0,1-.48,0,1.18,1.18,0,0,1-1.08-.53,2,2,0,0,1-.25-.79,3.7,3.7,0,0,1-1.26,1,3.93,3.93,0,0,1-1.81.42,2.7,2.7,0,0,1-1.95-.72,2.39,2.39,0,0,1-.75-1.8,2.33,2.33,0,0,1,.74-1.84,3.55,3.55,0,0,1,1.95-.8Zm-3,3.88a1.69,1.69,0,0,0,1.08.36,3.27,3.27,0,0,0,1.47-.35,2,2,0,0,0,1.2-1.91V85a2.42,2.42,0,0,1-.68.28,5.77,5.77,0,0,1-.81.16l-.87.11a3.33,3.33,0,0,0-1.18.33,1.27,1.27,0,0,0-.67,1.2A1.18,1.18,0,0,0,379.3,88Z"></path><path d="M150.44,97.23h2.28l3.37,9.92,3.35-9.92h2.26V109h-1.52V102q0-.36,0-1.19t0-1.78L156.86,109h-1.57l-3.38-9.89v.36q0,.43,0,1.31c0,.59,0,1,0,1.3V109h-1.52Z"></path><path d="M169,103.78a.78.78,0,0,0,.66-.41,1.28,1.28,0,0,0,.1-.55,1.17,1.17,0,0,0-.52-1.07,2.78,2.78,0,0,0-1.49-.33,1.89,1.89,0,0,0-1.59.61,2,2,0,0,0-.34,1h-1.34a2.48,2.48,0,0,1,1-2.21,4.19,4.19,0,0,1,2.29-.62,4.64,4.64,0,0,1,2.45.58,2,2,0,0,1,.93,1.79v4.93a.63.63,0,0,0,.09.36.44.44,0,0,0,.39.13h.22l.25,0V109a4.2,4.2,0,0,1-.51.12l-.48,0a1.18,1.18,0,0,1-1.08-.53,2,2,0,0,1-.25-.79,3.65,3.65,0,0,1-1.26,1,3.9,3.9,0,0,1-1.81.42,2.7,2.7,0,0,1-1.94-.72,2.4,2.4,0,0,1-.75-1.81,2.32,2.32,0,0,1,.74-1.84,3.55,3.55,0,0,1,1.95-.8Zm-3,3.88a1.7,1.7,0,0,0,1.08.36,3.26,3.26,0,0,0,1.47-.35,2,2,0,0,0,1.2-1.9v-1.15a2.6,2.6,0,0,1-.68.28,5.55,5.55,0,0,1-.81.16l-.87.11a3.39,3.39,0,0,0-1.17.33,1.27,1.27,0,0,0-.67,1.19A1.18,1.18,0,0,0,166,107.67Z"></path><path d="M178.74,100.67a3.83,3.83,0,0,1,.87.84V97.19H181V109H179.7v-1.19a3.1,3.1,0,0,1-1.18,1.14,3.37,3.37,0,0,1-1.57.35,3.17,3.17,0,0,1-2.47-1.2,4.71,4.71,0,0,1-1-3.2,5.54,5.54,0,0,1,.95-3.24,3.11,3.11,0,0,1,2.72-1.37A3,3,0,0,1,178.74,100.67Zm-3.21,6.41a2,2,0,0,0,1.86.93,2,2,0,0,0,1.63-.86,4.07,4.07,0,0,0,.64-2.46,3.66,3.66,0,0,0-.66-2.4,2.06,2.06,0,0,0-1.63-.78,2.15,2.15,0,0,0-1.75.83,3.82,3.82,0,0,0-.67,2.44A4.25,4.25,0,0,0,175.54,107.08Z"></path><path d="M183.7,100.41h1.36v1.48a3.27,3.27,0,0,1,.82-1.05,2.13,2.13,0,0,1,1.51-.62h.14l.33,0v1.52l-.23,0h-.24a2,2,0,0,0-1.67.7,2.44,2.44,0,0,0-.58,1.61V109H183.7Z"></path><path d="M194.91,100.64a3.24,3.24,0,0,1,1.29,1.11,3.83,3.83,0,0,1,.57,1.51,10,10,0,0,1,.13,1.88h-6.22a3.71,3.71,0,0,0,.61,2.09,2,2,0,0,0,1.77.79,2.27,2.27,0,0,0,1.78-.75,2.54,2.54,0,0,0,.53-1h1.41a3,3,0,0,1-.37,1,3.78,3.78,0,0,1-.7.95,3.33,3.33,0,0,1-1.61.86,4.81,4.81,0,0,1-1.16.13,3.57,3.57,0,0,1-2.69-1.16,4.54,4.54,0,0,1-1.1-3.25,4.93,4.93,0,0,1,1.11-3.35,3.65,3.65,0,0,1,2.9-1.29A3.87,3.87,0,0,1,194.91,100.64Zm.52,3.36a3.78,3.78,0,0,0-.4-1.49,2.07,2.07,0,0,0-2-1,2.16,2.16,0,0,0-1.65.71,2.72,2.72,0,0,0-.7,1.82Z"></path><path d="M209.66,100.41h1.59q-.3.82-1.35,3.75-.78,2.21-1.31,3.6a23.94,23.94,0,0,1-1.75,4,2,2,0,0,1-1.75.72,3.69,3.69,0,0,1-.47,0l-.4-.09V111a5.13,5.13,0,0,0,.54.13l.3,0a1,1,0,0,0,.58-.13,1.26,1.26,0,0,0,.32-.32s.12-.26.29-.65l.36-.88-3.16-8.8h1.63l2.29,7Z"></path><path d="M218.23,97.23h2.28l3.37,9.92,3.35-9.92h2.26V109H228V102q0-.36,0-1.19t0-1.78L224.66,109h-1.58l-3.38-9.89v.36q0,.43,0,1.31c0,.59,0,1,0,1.3V109h-1.52Z"></path><path d="M236.81,103.78a.78.78,0,0,0,.66-.41,1.29,1.29,0,0,0,.09-.55,1.18,1.18,0,0,0-.52-1.07,2.78,2.78,0,0,0-1.49-.33A1.89,1.89,0,0,0,234,102a2,2,0,0,0-.34,1h-1.34a2.48,2.48,0,0,1,1-2.21,4.19,4.19,0,0,1,2.28-.62,4.64,4.64,0,0,1,2.45.58,2,2,0,0,1,.93,1.79v4.93a.63.63,0,0,0,.09.36.45.45,0,0,0,.39.13h.21l.26,0V109a4.21,4.21,0,0,1-.51.12l-.48,0a1.18,1.18,0,0,1-1.08-.53,2,2,0,0,1-.25-.79,3.66,3.66,0,0,1-1.26,1,3.9,3.9,0,0,1-1.81.42,2.7,2.7,0,0,1-1.95-.72,2.4,2.4,0,0,1-.75-1.81,2.33,2.33,0,0,1,.74-1.84,3.55,3.55,0,0,1,1.95-.8Zm-3,3.88a1.7,1.7,0,0,0,1.08.36,3.26,3.26,0,0,0,1.47-.35,2,2,0,0,0,1.2-1.9v-1.15a2.61,2.61,0,0,1-.68.28,5.69,5.69,0,0,1-.82.16l-.87.11a3.39,3.39,0,0,0-1.17.33,1.27,1.27,0,0,0-.67,1.19A1.19,1.19,0,0,0,233.78,107.67Z"></path><path d="M247.13,100.64a3.24,3.24,0,0,1,1.29,1.11,3.86,3.86,0,0,1,.57,1.51,10.3,10.3,0,0,1,.12,1.88H242.9a3.72,3.72,0,0,0,.61,2.09,2,2,0,0,0,1.77.79,2.27,2.27,0,0,0,1.78-.75,2.57,2.57,0,0,0,.53-1H249a3,3,0,0,1-.37,1,3.76,3.76,0,0,1-.71.95,3.31,3.31,0,0,1-1.61.86,4.79,4.79,0,0,1-1.17.13,3.57,3.57,0,0,1-2.69-1.16,4.54,4.54,0,0,1-1.1-3.25,4.93,4.93,0,0,1,1.11-3.35,3.65,3.65,0,0,1,2.9-1.29A3.87,3.87,0,0,1,247.13,100.64Zm.51,3.36a3.8,3.8,0,0,0-.4-1.49,2.07,2.07,0,0,0-2-1,2.16,2.16,0,0,0-1.65.71,2.71,2.71,0,0,0-.71,1.82Z"></path><path d="M252.31,106.28a2.08,2.08,0,0,0,.37,1.1,2.34,2.34,0,0,0,1.92.69,2.91,2.91,0,0,0,1.43-.34,1.15,1.15,0,0,0,.62-1.08.92.92,0,0,0-.49-.84,6.12,6.12,0,0,0-1.25-.41l-1.16-.29a5.67,5.67,0,0,1-1.64-.61,1.81,1.81,0,0,1-.94-1.61,2.45,2.45,0,0,1,.89-2,3.57,3.57,0,0,1,2.38-.75,3.33,3.33,0,0,1,2.83,1.13,2.46,2.46,0,0,1,.52,1.55h-1.36a1.61,1.61,0,0,0-.35-.88,2.28,2.28,0,0,0-1.76-.56,2.15,2.15,0,0,0-1.26.31,1,1,0,0,0-.43.82,1,1,0,0,0,.56.89,3.42,3.42,0,0,0,1,.35l1,.23a7.54,7.54,0,0,1,2.11.73,1.92,1.92,0,0,1,.84,1.73,2.64,2.64,0,0,1-.87,2,3.78,3.78,0,0,1-2.67.83,3.61,3.61,0,0,1-2.74-.87,3.25,3.25,0,0,1-.86-2.14Z"></path><path d="M260.45,98h1.45v2.39h1.37v1.17H261.9v5.58a.61.61,0,0,0,.3.6,1.28,1.28,0,0,0,.56.09H263l.28,0V109a3.11,3.11,0,0,1-.51.1,4.86,4.86,0,0,1-.58,0,1.56,1.56,0,0,1-1.37-.52,2.29,2.29,0,0,1-.36-1.34v-5.66h-1.16v-1.17h1.16Z"></path><path d="M265.27,100.41h1.37v1.48a3.22,3.22,0,0,1,.82-1.05,2.13,2.13,0,0,1,1.51-.62h.13l.33,0v1.52l-.24,0H269a2,2,0,0,0-1.67.7,2.44,2.44,0,0,0-.58,1.61V109h-1.44Z"></path><path d="M275.78,103.78a.78.78,0,0,0,.66-.41,1.27,1.27,0,0,0,.1-.55,1.17,1.17,0,0,0-.52-1.07,2.78,2.78,0,0,0-1.49-.33,1.89,1.89,0,0,0-1.59.61,2,2,0,0,0-.34,1h-1.34a2.49,2.49,0,0,1,1-2.21,4.2,4.2,0,0,1,2.29-.62,4.63,4.63,0,0,1,2.45.58,2,2,0,0,1,.93,1.79v4.93a.64.64,0,0,0,.09.36.44.44,0,0,0,.39.13h.21l.26,0V109a4.29,4.29,0,0,1-.51.12l-.48,0a1.18,1.18,0,0,1-1.08-.53,2,2,0,0,1-.25-.79,3.65,3.65,0,0,1-1.26,1,3.9,3.9,0,0,1-1.81.42,2.7,2.7,0,0,1-1.94-.72,2.4,2.4,0,0,1-.75-1.81,2.32,2.32,0,0,1,.74-1.84,3.55,3.55,0,0,1,1.95-.8Zm-3,3.88a1.7,1.7,0,0,0,1.08.36,3.27,3.27,0,0,0,1.47-.35,2,2,0,0,0,1.2-1.9v-1.15a2.56,2.56,0,0,1-.68.28,5.59,5.59,0,0,1-.82.16l-.87.11a3.36,3.36,0,0,0-1.17.33,1.27,1.27,0,0,0-.67,1.19A1.19,1.19,0,0,0,272.75,107.67Z"></path><path class="cls-pucmm2" d="M64.18.41A63.77,63.77,0,1,0,128,64.18,63.77,63.77,0,0,0,64.18.41Zm0,114.5A50.72,50.72,0,1,1,114.9,64.18,50.73,50.73,0,0,1,64.18,114.9Z"></path><path d="M64.18,128.36a64.18,64.18,0,1,1,64.18-64.18A64.25,64.25,0,0,1,64.18,128.36ZM64.18.82a63.36,63.36,0,1,0,63.37,63.36A63.44,63.44,0,0,0,64.18.82Zm0,114.5a51.13,51.13,0,1,1,51.13-51.13A51.19,51.19,0,0,1,64.18,115.31Zm0-101.45a50.32,50.32,0,1,0,50.31,50.32A50.37,50.37,0,0,0,64.18,13.86Z"></path><path d="M9.16,76.5a1.62,1.62,0,0,1,.56,1l.21.86,1.48-.37.21.85-4.12,1-.44-1.77A1.48,1.48,0,0,1,7.14,77a1.29,1.29,0,0,1,.9-.61A1.32,1.32,0,0,1,9.16,76.5Zm-1.32,1a.72.72,0,0,0,0,.49l.19.78,1.21-.3L9,77.71a.68.68,0,0,0-.26-.42.62.62,0,0,0-.51,0A.58.58,0,0,0,7.83,77.52Z"></path><path d="M9.7,71.06a2.2,2.2,0,0,1,.41,2.75,2.29,2.29,0,0,1-1.63.9,2.25,2.25,0,0,1-1.83-.38,2.2,2.2,0,0,1-.41-2.75,2.24,2.24,0,0,1,1.63-.9A2.3,2.3,0,0,1,9.7,71.06Zm-.56.64A1.73,1.73,0,0,0,8,71.56,1.73,1.73,0,0,0,7,72a1,1,0,0,0-.26.88,1,1,0,0,0,.51.77,1.72,1.72,0,0,0,1.14.14,1.71,1.71,0,0,0,1-.47,1.1,1.1,0,0,0-.25-1.66Z"></path><path d="M5.61,69.2l-.05-.93,2.86-1.84-3,.16,0-.82,4.24-.23,0,.88L6.8,68.31l3-.17,0,.83Z"></path><path d="M5.5,60.68l.75,0,0,1.27,3.49.1,0,.89-3.49-.1,0,1.28-.75,0Z"></path><path d="M9.94,58.68l-.08.88-4.22-.39.08-.88Z"></path><path d="M5.93,56.36l.47-3,.74.12L6.8,55.61l1,.15.29-1.86.73.11-.29,1.86,1.76.27-.14.87Z"></path><path d="M11.05,51.89l-.19.86-4.14-.91L6.91,51Z"></path><path d="M7.88,48.86a2,2,0,0,1,1-2.69,1.53,1.53,0,0,1,.84-.05L9.45,47a1.23,1.23,0,0,0-.5.08,1,1,0,0,0-.3,1.42,1.9,1.9,0,0,0,1,.57,1.68,1.68,0,0,0,1.11,0,.9.9,0,0,0,.55-.6.83.83,0,0,0-.1-.75,1.33,1.33,0,0,0-.41-.35l.25-.85a1.91,1.91,0,0,1,.92.88A1.7,1.7,0,0,1,12,48.67a1.79,1.79,0,0,1-1,1.2,2.37,2.37,0,0,1-1.7,0A2.35,2.35,0,0,1,7.88,48.86Z"></path><path d="M13.23,44.71l-.31.83-4-1.48.31-.83Z"></path><path d="M10.45,40.33l.41-.91,4.48.38-.4.87-.91-.1L13.4,42l.68.62-.38.85Zm2.38,1.14.45-1-1.74-.2Z"></path><path d="M13.46,34.41l.48-.76L16.14,35a1.5,1.5,0,0,0,.6.25.86.86,0,0,0,.74-1.18,1.45,1.45,0,0,0-.49-.43l-2.21-1.38.48-.76,2.21,1.38a2.19,2.19,0,0,1,.78.74,1.56,1.56,0,0,1-.2,1.63,1.56,1.56,0,0,1-1.38.9,2.17,2.17,0,0,1-1-.38Z"></path><path d="M16.4,29.87l.56-.74,3.37.45L18,27.79l.5-.66,3.38,2.57-.54.7L17.88,30l2.4,1.82-.5.66Z"></path><path d="M23.48,27.83l-.58.66L19.7,25.7l.58-.66Z"></path><path d="M23.3,21.87l.65-.65,2,4-.59.59-4-2,.67-.67,2.93,1.62Z"></path><path d="M28.08,18.63l-1.71,1.45.58.69,1.57-1.33L29,20l-1.57,1.33.7.83,1.79-1.52.49.58L28,23.31l-2.74-3.24,2.37-2Z"></path><path d="M31.44,15.38a1,1,0,0,1,.5,0,1.32,1.32,0,0,1,.38.17,1.18,1.18,0,0,1,.32.32,1.28,1.28,0,0,1,.22.57.85.85,0,0,1-.17.63.78.78,0,0,1,.53,0,1.39,1.39,0,0,1,.48.47l.16.23a2,2,0,0,0,.25.31.36.36,0,0,0,.27.11l.06.09-.8.56-.18-.15a2.19,2.19,0,0,1-.24-.28L33,18.13c-.16-.22-.3-.34-.42-.36a.72.72,0,0,0-.49.18l-.71.5,1,1.36-.71.5-2.44-3.47,1.66-1.17A1.82,1.82,0,0,1,31.44,15.38Zm-1.14,1.57.66.93.78-.55a1,1,0,0,0,.31-.3.48.48,0,0,0-.07-.54.54.54,0,0,0-.5-.28.9.9,0,0,0-.38.17Z"></path><path d="M35.66,16a.85.85,0,0,0,.36.3.94.94,0,0,0,.78-.15,1.64,1.64,0,0,0,.42-.32.49.49,0,0,0,.08-.61.36.36,0,0,0-.32-.19,2,2,0,0,0-.61.12l-.45.14a2.85,2.85,0,0,1-1,.18,1,1,0,0,1-.83-.58,1.22,1.22,0,0,1-.11-1,1.79,1.79,0,0,1,.88-.94,1.88,1.88,0,0,1,1.18-.27,1.26,1.26,0,0,1,1,.64l-.74.43a.61.61,0,0,0-.57-.3,1.18,1.18,0,0,0-.51.17,1,1,0,0,0-.42.4.44.44,0,0,0,0,.44.37.37,0,0,0,.35.19,2.57,2.57,0,0,0,.58-.13l.73-.22a1.91,1.91,0,0,1,.79-.1,1,1,0,0,1,.76.56,1.22,1.22,0,0,1,.09,1.06,1.9,1.9,0,0,1-.91,1,2.08,2.08,0,0,1-1.33.33,1.25,1.25,0,0,1-.94-.66Z"></path><path d="M40.64,14.84l-.79.39L38,11.43l.79-.39Z"></path><path d="M42.83,9.35a1.39,1.39,0,0,1,.87.22,1.88,1.88,0,0,1,.54.52,3.3,3.3,0,0,1,.34.62,2.82,2.82,0,0,1,.23,1.45,1.53,1.53,0,0,1-1,1.27l-1.69.7L40.5,10.21l1.69-.69A2.21,2.21,0,0,1,42.83,9.35Zm-1.26,1.21,1.05,2.56.76-.31a.88.88,0,0,0,.58-.91,2.16,2.16,0,0,0-.18-.8,2,2,0,0,0-.57-.84.85.85,0,0,0-.88,0Z"></path><path d="M46.71,7.88l1-.29,2.68,3.62-.92.28-.52-.75-1.49.46,0,.92-.89.27Zm.72,2.54,1-.32-1-1.44Z"></path><path d="M53.23,6.33a1.4,1.4,0,0,1,.82.38,1.88,1.88,0,0,1,.44.61A3.36,3.36,0,0,1,54.7,8a2.81,2.81,0,0,1,0,1.47,1.53,1.53,0,0,1-1.23,1.06l-1.79.37-.86-4.15,1.79-.37A2.24,2.24,0,0,1,53.23,6.33Zm-1.46,1L52.33,10l.8-.17A.88.88,0,0,0,53.86,9a2.18,2.18,0,0,0,0-.82,2,2,0,0,0-.4-.93.86.86,0,0,0-.86-.17Z"></path><path d="M59.19,5.84a2,2,0,0,1,2.86,0,1.53,1.53,0,0,1,.34.77l-.88.06a1.19,1.19,0,0,0-.25-.44,1,1,0,0,0-1.44.21,1.91,1.91,0,0,0-.2,1.12,1.68,1.68,0,0,0,.36,1,.9.9,0,0,0,.76.31.83.83,0,0,0,.67-.35A1.34,1.34,0,0,0,61.59,8L62.47,8A1.92,1.92,0,0,1,62,9.14a1.7,1.7,0,0,1-1.17.51,1.8,1.8,0,0,1-1.46-.49,2.37,2.37,0,0,1-.62-1.58A2.34,2.34,0,0,1,59.19,5.84Z"></path><path d="M65.41,5.18l1,0,1.4,4.28-1,0-.26-.88L65,8.54l-.31.86-.93,0Zm-.12,2.64,1.09,0-.5-1.68Z"></path><path d="M72.2,5.65l-.08.75-1.26-.13-.35,3.47-.89-.09L70,6.18,68.7,6.05l.08-.75Z"></path><path d="M76.33,10.3a2.2,2.2,0,0,1-2.73-.53,2.29,2.29,0,0,1-.3-1.84,2.24,2.24,0,0,1,1-1.6A2.2,2.2,0,0,1,77,6.86a2.26,2.26,0,0,1,.3,1.84A2.29,2.29,0,0,1,76.33,10.3Zm-.42-.74a1.74,1.74,0,0,0,.51-1,1.74,1.74,0,0,0-.1-1.14,1,1,0,0,0-.75-.54,1,1,0,0,0-.9.22,1.72,1.72,0,0,0-.52,1,1.72,1.72,0,0,0,.1,1.14,1,1,0,0,0,.75.54A1,1,0,0,0,75.91,9.56Zm1-4.44-1,.68-.58-.11L76,4.95Z"></path><path d="M79.48,7.09l.85.24-1,3.34,2,.58-.21.73-2.89-.83Z"></path><path d="M83.3,12.74l-.83-.3,1.43-4,.83.3Z"></path><path d="M86.74,10a2,2,0,0,1,2.54,1.31,1.53,1.53,0,0,1-.05.84l-.81-.36a1.21,1.21,0,0,0,0-.51.87.87,0,0,0-.53-.53.87.87,0,0,0-.84.06,1.9,1.9,0,0,0-.69.9,1.66,1.66,0,0,0-.16,1.09.9.9,0,0,0,.53.62.83.83,0,0,0,.76,0,1.34,1.34,0,0,0,.4-.36l.81.35a1.91,1.91,0,0,1-1,.8,1.69,1.69,0,0,1-1.27-.08A1.8,1.8,0,0,1,85.34,13a2.37,2.37,0,0,1,.17-1.69A2.35,2.35,0,0,1,86.74,10Z"></path><path d="M92.53,12.27l.88.48-.74,4.44-.84-.47.18-.9-1.37-.75L90,15.7l-.81-.45ZM91.2,14.55l1,.52.34-1.72Z"></path><path d="M100.48,17.44l1,.77L99,21.6l-.66-.5L100,18.81l.21-.28.21-.27-2.78,2.36L97,20.11l1.5-3.33-.21.28-.21.28-1.72,2.3-.66-.5,2.55-3.39,1,.77-1.38,3.13Z"></path><path d="M103.92,20.31l.74.68-1.75,4.14-.71-.65.38-.83-1.15-1.05-.8.45-.68-.63Zm-1.82,1.91.8.73.73-1.59Z"></path><path d="M108.58,25.14a1.41,1.41,0,0,1,.09.9,1.89,1.89,0,0,1-.3.68,3.37,3.37,0,0,1-.46.53,2.84,2.84,0,0,1-1.29.71,1.53,1.53,0,0,1-1.54-.52l-1.23-1.35L107,23.24l1.23,1.35A2.22,2.22,0,0,1,108.58,25.14ZM107,24.37l-2,1.86.55.6a.88.88,0,0,0,1,.23,2.19,2.19,0,0,0,.69-.44,2,2,0,0,0,.6-.82.86.86,0,0,0-.29-.83Z"></path><path d="M112.12,29.56a1.06,1.06,0,0,1,0,.49,1.33,1.33,0,0,1-.16.39,1.18,1.18,0,0,1-.31.33,1.26,1.26,0,0,1-.57.23.85.85,0,0,1-.63-.15.8.8,0,0,1,0,.53,1.39,1.39,0,0,1-.46.5l-.23.17a2.35,2.35,0,0,0-.3.26.36.36,0,0,0-.09.28l-.08.06-.59-.78.15-.18a2,2,0,0,1,.27-.25l.31-.24a.82.82,0,0,0,.35-.44.72.72,0,0,0-.2-.49l-.52-.69-1.33,1-.52-.69,3.39-2.55L111.81,29A1.86,1.86,0,0,1,112.12,29.56Zm-1.61-1.08-.91.69.57.76a1,1,0,0,0,.31.3.47.47,0,0,0,.53-.09.53.53,0,0,0,.27-.51.88.88,0,0,0-.19-.37Z"></path><path d="M114.77,34.75l-1.19-1.9-.76.48,1.09,1.75-.62.39-1.09-1.75-.93.58,1.24,2-.65.4L110.16,34l3.6-2.25,1.65,2.64Z"></path><path d="M118.54,40.52l.42.91-3-.19-1.45.66-.37-.81,1.45-.66,1.8-2.44.43,1-1.31,1.57Z"></path><path d="M121.26,48.11l.36,1.22-4.07,1.21-.24-.79,2.75-.82.33-.1.33-.1-3.64.25-.25-.83L120,46.38l-.33.1-.33.1-2.75.82-.24-.79,4.07-1.21.37,1.24-3,1.69Z"></path><path d="M122.31,52.48l.19,1-3.88,2.28-.18-.94.8-.44-.3-1.53-.91-.12-.18-.91Zm-2.6.45.21,1.07,1.54-.84Z"></path><path d="M122.58,59.85l-.23-2.23-.9.09.21,2-.73.08-.21-2-1.08.11.24,2.33-.76.08-.33-3.2,4.22-.43.31,3.1Z"></path><path d="M120.51,62.41a.88.88,0,0,0-.43.17.94.94,0,0,0-.25.76,1.6,1.6,0,0,0,.08.52.49.49,0,0,0,.5.37.36.36,0,0,0,.32-.19,2,2,0,0,0,.19-.59L121,63a2.86,2.86,0,0,1,.31-.94,1,1,0,0,1,.91-.44,1.22,1.22,0,0,1,1,.4,1.78,1.78,0,0,1,.4,1.23,1.9,1.9,0,0,1-.34,1.17,1.26,1.26,0,0,1-1,.52v-.85a.61.61,0,0,0,.54-.35,1.19,1.19,0,0,0,.1-.53,1,1,0,0,0-.15-.56.44.44,0,0,0-.39-.2.36.36,0,0,0-.34.21,2.61,2.61,0,0,0-.17.57l-.16.75a1.9,1.9,0,0,1-.3.74,1,1,0,0,1-.86.39,1.22,1.22,0,0,1-1-.43,1.9,1.9,0,0,1-.41-1.26,2.08,2.08,0,0,1,.36-1.32,1.25,1.25,0,0,1,1-.5Z"></path><path d="M123.23,69.85l-.75,0,.08-1.27-3.48-.23.06-.89,3.48.23.08-1.27.75,0Z"></path><path d="M122.52,74.19a1,1,0,0,1-.35.35,1.4,1.4,0,0,1-.39.16,1.18,1.18,0,0,1-.45,0,1.26,1.26,0,0,1-.56-.24.85.85,0,0,1-.33-.56.79.79,0,0,1-.39.36,1.38,1.38,0,0,1-.67,0l-.28,0a2.15,2.15,0,0,0-.39,0,.35.35,0,0,0-.26.13l-.1,0,.15-1,.23,0a2,2,0,0,1,.37,0l.39.05a.8.8,0,0,0,.56-.06.7.7,0,0,0,.21-.48l.13-.86-1.64-.25.13-.86,4.19.64-.31,2A1.83,1.83,0,0,1,122.52,74.19Zm-.34-1.91-1.13-.17-.14.94a1,1,0,0,0,0,.43.47.47,0,0,0,.43.32.53.53,0,0,0,.55-.16.89.89,0,0,0,.13-.39Z"></path><path d="M121.84,78l-.24,1-4.48.43.23-.93.91-.06.38-1.52-.78-.49.22-.9Zm-2.55-.7L119,78.41l1.75-.12Z"></path><path d="M27.43,105.31a1,1,0,0,1,.09.49,1.33,1.33,0,0,1-.08.4,1.2,1.2,0,0,1-.25.38,1.27,1.27,0,0,1-.51.33.85.85,0,0,1-.64,0,.79.79,0,0,1,.08.52,1.38,1.38,0,0,1-.36.56l-.19.21a2,2,0,0,0-.25.3.35.35,0,0,0,0,.29l-.07.08-.71-.66.11-.2a1.94,1.94,0,0,1,.22-.29l.26-.29a.79.79,0,0,0,.26-.49.71.71,0,0,0-.28-.44l-.63-.58-1.12,1.21-.63-.58,2.86-3.08L27,104.78A1.81,1.81,0,0,1,27.43,105.31Zm-1.75-.78-.77.83.69.64a1,1,0,0,0,.36.24.47.47,0,0,0,.51-.18.53.53,0,0,0,.17-.54.87.87,0,0,0-.25-.33Z"></path><path d="M31.24,109.23l-1.76-1.37-.55.71,1.61,1.25-.45.58-1.61-1.25-.66.85,1.84,1.43-.46.59-2.52-2,2.58-3.32,2.44,1.89Z"></path><path d="M34,113.07a1.6,1.6,0,0,1-1.05-.32l-.73-.48-.83,1.27-.73-.48L33,109.54l1.51,1a1.46,1.46,0,0,1,.66.81,1.28,1.28,0,0,1-.24,1A1.31,1.31,0,0,1,34,113.07Zm.26-1.64a.7.7,0,0,0-.32-.37l-.66-.43-.67,1,.66.43a.68.68,0,0,0,.47.13.62.62,0,0,0,.4-.31A.59.59,0,0,0,34.27,111.43Z"></path><path d="M36.88,112l.79.42-1.21,2.28a1.46,1.46,0,0,0-.21.61.85.85,0,0,0,1.22.65,1.48,1.48,0,0,0,.39-.51l1.21-2.28.79.42-1.22,2.28a2.15,2.15,0,0,1-.67.82,1.94,1.94,0,0,1-2.61-1.39,2.19,2.19,0,0,1,.31-1Zm2.91.2-1.17.35-.52-.28.88-.5Z"></path><path d="M44,115.92a1.07,1.07,0,0,1-.07.67.94.94,0,0,1-.42.5,1,1,0,0,1-.39.1.92.92,0,0,1,.3.53,1.1,1.1,0,0,1-.09.63,1.23,1.23,0,0,1-.43.55,1.17,1.17,0,0,1-.92.2,2.92,2.92,0,0,1-.57-.18l-1.75-.74,1.63-3.88,1.87.79A1.29,1.29,0,0,1,44,115.92Zm-2.85.87-.43,1,.94.4a1,1,0,0,0,.42.1.53.53,0,0,0,.46-.38.45.45,0,0,0-.07-.52,1.1,1.1,0,0,0-.36-.23Zm.63-1.5-.36.86.94.4a.85.85,0,0,0,.45.08.4.4,0,0,0,.3-.27.38.38,0,0,0-.06-.45,1.57,1.57,0,0,0-.43-.25Z"></path><path d="M45.93,116.14l.84.27-1.06,3.28,2,.65-.23.72-2.83-.92Z"></path><path d="M49.84,121.68l-.85-.22,1-4.07.85.21Z"></path><path d="M52.77,118.5a2,2,0,0,1,2.75.69,1.51,1.51,0,0,1,.14.82l-.86-.16a1.2,1.2,0,0,0-.13-.49A.87.87,0,0,0,54,119a.86.86,0,0,0-.8.25,1.89,1.89,0,0,0-.47,1,1.65,1.65,0,0,0,.09,1.09.89.89,0,0,0,.65.48.83.83,0,0,0,.73-.17,1.34,1.34,0,0,0,.3-.44l.86.16a1.89,1.89,0,0,1-.77,1,1.66,1.66,0,0,1-1.25.21,1.79,1.79,0,0,1-1.28-.83,2.76,2.76,0,0,1,.67-3.24Z"></path><path d="M58.52,118.94l1,.09,1.09,4.32-.95-.09-.2-.89-1.54-.14-.36.83-.92-.09Zm-.3,2.6,1.07.1-.37-1.7Z"></path><path d="M67,119.25a1.39,1.39,0,0,1,.73.51,1.87,1.87,0,0,1,.32.67,3.25,3.25,0,0,1,.11.69,2.8,2.8,0,0,1-.29,1.43,1.52,1.52,0,0,1-1.38.84l-1.81.06-.15-4.2,1.81-.07A2.2,2.2,0,0,1,67,119.25Zm-1.59.7.1,2.75.81,0a.88.88,0,0,0,.85-.64,2.18,2.18,0,0,0,.11-.81,2,2,0,0,0-.24-1,.85.85,0,0,0-.81-.32Z"></path><path d="M73.22,122.38a2.18,2.18,0,0,1-2.73.35,2.26,2.26,0,0,1-.86-1.64,2.22,2.22,0,0,1,.41-1.8,2.18,2.18,0,0,1,2.73-.36,2.23,2.23,0,0,1,.85,1.64A2.27,2.27,0,0,1,73.22,122.38Zm-.63-.56a2.1,2.1,0,0,0-.28-2.17,1,1,0,0,0-.87-.28,1,1,0,0,0-.78.49,2.09,2.09,0,0,0,.28,2.17,1,1,0,0,0,.87.27A1,1,0,0,0,72.59,121.82Z"></path><path d="M77.44,117.62l1.23-.28.95,4.1-.8.18-.64-2.77c0-.08,0-.19-.08-.33l-.07-.33,0,3.62-.83.19-1.57-3.26.08.33.08.33.64,2.77-.8.19-.95-4.1,1.25-.29,1.49,3Z"></path><path d="M82.21,120.64l-.83.26-1.25-4,.83-.26Z"></path><path d="M82.48,116.13l.86-.33L86,117.93,84.9,115.2l.76-.29,1.52,3.92-.82.32L83.69,117l1.08,2.78-.76.29Z"></path><path d="M89.61,117.71l-.79.37L87,114.27l.79-.37Z"></path><path d="M89.85,113.39a2,2,0,0,1,2.56-1.21,1.52,1.52,0,0,1,.63.55l-.77.42a1.22,1.22,0,0,0-.41-.29.87.87,0,0,0-.74.1.86.86,0,0,0-.46.7,1.88,1.88,0,0,0,.29,1.09,1.64,1.64,0,0,0,.76.79.9.9,0,0,0,.81,0,.82.82,0,0,0,.46-.6,1.34,1.34,0,0,0,0-.53l.76-.42a1.89,1.89,0,0,1,0,1.26,1.67,1.67,0,0,1-.83,1,1.78,1.78,0,0,1-1.52.17,2.35,2.35,0,0,1-1.23-1.16A2.32,2.32,0,0,1,89.85,113.39Z"></path><path d="M94.6,110.06l.82-.56L99,112.15l-.79.54-.71-.56-1.28.87.25.88-.76.51Zm1.42,2.2.89-.6-1.37-1.07Z"></path><path d="M97.66,107.9l.71-.58,3.15,1.21-1.85-2.27.63-.52L103,109l-.68.55-3.21-1.23,1.89,2.31-.63.52Z"></path><path d="M102.33,103.86l.71-.7,4,2-.68.67-.8-.42-1.11,1.08.4.82-.66.64Zm1.79,1.91.77-.75-1.54-.81Z"></path><path d="M40.89,27.62h.68L40.5,30.75h-.62l-1.06-3.13h.7L40.21,30Z"></path><path d="M44.5,28.18H42.84v.67h1.52v.54H42.84v.81h1.73v.56H42.2V27.62h2.3Z"></path><path d="M47.31,27.7a.75.75,0,0,1,.29.22.93.93,0,0,1,.16.26.86.86,0,0,1,.06.33.94.94,0,0,1-.11.44.63.63,0,0,1-.37.3.59.59,0,0,1,.31.25,1,1,0,0,1,.09.49v.21a1.54,1.54,0,0,0,0,.29.26.26,0,0,0,.12.18v.08h-.72l0-.17a1.65,1.65,0,0,1,0-.27V30a.59.59,0,0,0-.1-.4.53.53,0,0,0-.37-.1H46v1.23h-.64V27.62h1.5A1.4,1.4,0,0,1,47.31,27.7ZM46,28.17V29h.7A.74.74,0,0,0,47,29a.35.35,0,0,0,.19-.35.39.39,0,0,0-.18-.38.65.65,0,0,0-.3-.06Z"></path><path d="M49.26,30.75h-.65V27.62h.65Z"></path><path d="M52.36,27.62v.56h-.94v2.58h-.66V28.18h-.94v-.56Z"></path><path d="M53.54,27.62h.74l1.11,3.13h-.71l-.21-.64H53.32l-.21.64h-.69Zm0,2h.8l-.4-1.23Z"></path><path d="M56.47,29.79a.65.65,0,0,0,.12.32.7.7,0,0,0,.56.19,1.24,1.24,0,0,0,.38-.05.37.37,0,0,0,.28-.36.27.27,0,0,0-.14-.24,1.44,1.44,0,0,0-.43-.15l-.34-.08a2.09,2.09,0,0,1-.69-.24.76.76,0,0,1-.32-.68.9.9,0,0,1,.31-.7,1.32,1.32,0,0,1,.91-.28,1.39,1.39,0,0,1,.85.26.93.93,0,0,1,.37.76h-.63a.45.45,0,0,0-.25-.4.87.87,0,0,0-.39-.08.75.75,0,0,0-.41.1.32.32,0,0,0-.15.29.27.27,0,0,0,.15.25,2,2,0,0,0,.42.13l.55.13a1.4,1.4,0,0,1,.54.23.77.77,0,0,1,.28.64.9.9,0,0,1-.33.71,1.4,1.4,0,0,1-.94.28,1.53,1.53,0,0,1-1-.28.93.93,0,0,1-.35-.77Z"></path><path d="M62.86,28.18H61.21v.67h1.52v.54H61.21v.81h1.73v.56H60.57V27.62h2.3Z"></path><path d="M65.94,27.62v.56H65v2.58h-.66V28.18h-.94v-.56Z"></path><path d="M68.44,29.79a.65.65,0,0,0,.12.32.7.7,0,0,0,.56.19,1.25,1.25,0,0,0,.38-.05.37.37,0,0,0,.28-.36.27.27,0,0,0-.14-.24,1.44,1.44,0,0,0-.44-.15l-.34-.08a2.1,2.1,0,0,1-.69-.24.76.76,0,0,1-.32-.68.9.9,0,0,1,.31-.7,1.31,1.31,0,0,1,.91-.28,1.39,1.39,0,0,1,.85.26.93.93,0,0,1,.37.76h-.63a.45.45,0,0,0-.25-.4.87.87,0,0,0-.39-.08.75.75,0,0,0-.41.1.32.32,0,0,0-.15.29.27.27,0,0,0,.15.25,2,2,0,0,0,.42.13l.55.13a1.4,1.4,0,0,1,.54.23.77.77,0,0,1,.28.64.9.9,0,0,1-.33.71,1.4,1.4,0,0,1-.94.28,1.53,1.53,0,0,1-1-.28.93.93,0,0,1-.35-.77Z"></path><path d="M71.39,27.95a1.46,1.46,0,0,1,2.11.13,1.14,1.14,0,0,1,.22.58h-.65a.88.88,0,0,0-.16-.34.71.71,0,0,0-1.07.08,1.41,1.41,0,0,0-.2.82,1.24,1.24,0,0,0,.21.79.67.67,0,0,0,.54.26.61.61,0,0,0,.51-.23,1,1,0,0,0,.16-.36h.65a1.4,1.4,0,0,1-.43.83,1.25,1.25,0,0,1-.89.32,1.33,1.33,0,0,1-1.05-.43,2.05,2.05,0,0,1,.05-2.46Z"></path><path d="M75,30.75H74.4V27.62H75Z"></path><path d="M78.19,28.18H76.53v.67h1.52v.54H76.53v.81h1.73v.56H75.9V27.62h2.3Z"></path><path d="M79,27.62h.69l1.24,2.19V27.62h.61v3.13h-.65L79.6,28.53v2.22H79Z"></path><path d="M84.63,27.62v.56h-.94v2.58H83V28.18h-.94v-.56Z"></path><path d="M85.83,30.75h-.65V27.62h.65Z"></path><path d="M87.55,27.62h.74l1.11,3.13h-.71l-.21-.64H87.33l-.21.64h-.68Zm0,2h.8l-.4-1.23Z"></path><path d="M58.43,109.52v-.41a2.2,2.2,0,0,0,.4,0,.55.55,0,0,0,.3-.16.53.53,0,0,0,.12-.22.56.56,0,0,0,0-.12h.5v3.08h-.62v-2.12Z"></path><path d="M61.73,108.84a1.06,1.06,0,0,1,1.71.32,2.44,2.44,0,0,1,.15.93,2.66,2.66,0,0,1-.14.93,1,1,0,0,1-1,.71,1,1,0,0,1-.62-.21.81.81,0,0,1-.32-.6h.6a.34.34,0,0,0,.36.31.43.43,0,0,0,.42-.33,1.89,1.89,0,0,0,.08-.53.68.68,0,0,1-.18.16.79.79,0,0,1-.42.1,1,1,0,0,1-.65-.25.93.93,0,0,1-.29-.73A1.14,1.14,0,0,1,61.73,108.84Zm1,1.22a.5.5,0,0,0,.21-.46.65.65,0,0,0-.12-.42.44.44,0,0,0-.6-.06.55.55,0,0,0-.17.46.65.65,0,0,0,.11.41.42.42,0,0,0,.34.14A.45.45,0,0,0,62.75,110.07Z"></path><path d="M66.09,109.34a.31.31,0,0,0-.06-.16.33.33,0,0,0-.3-.14.44.44,0,0,0-.42.33,2.15,2.15,0,0,0-.09.54.66.66,0,0,1,.26-.2.87.87,0,0,1,.34-.06.89.89,0,0,1,.67.28,1,1,0,0,1,.26.71,1.19,1.19,0,0,1-.26.76,1,1,0,0,1-.8.33.92.92,0,0,1-.86-.49,2,2,0,0,1-.21-1,4.45,4.45,0,0,1,0-.57,1.75,1.75,0,0,1,.21-.65,1.06,1.06,0,0,1,.35-.36.91.91,0,0,1,.51-.14,1,1,0,0,1,.68.22.83.83,0,0,1,.29.58Zm-.72,1.74a.43.43,0,0,0,.34.16.38.38,0,0,0,.32-.15.64.64,0,0,0,.12-.4.6.6,0,0,0-.13-.41.44.44,0,0,0-.6,0,.53.53,0,0,0-.18.45A.6.6,0,0,0,65.37,111.07Z"></path><path d="M68,111a1.72,1.72,0,0,1,.61-.65,4.43,4.43,0,0,0,.54-.43.63.63,0,0,0,.19-.44.49.49,0,0,0-.11-.33.38.38,0,0,0-.31-.13.38.38,0,0,0-.38.21,1,1,0,0,0-.07.38h-.59A1.49,1.49,0,0,1,68,109a.89.89,0,0,1,.86-.46,1.09,1.09,0,0,1,.78.27.94.94,0,0,1,.29.72,1,1,0,0,1-.2.61,2,2,0,0,1-.44.39l-.24.17-.31.23a.76.76,0,0,0-.14.17h1.34v.53H67.81A1.46,1.46,0,0,1,68,111Z"></path><path class="cls-pucmm3" d="M51.43,51.7l-.1,47.66c-12.07-8.14-12.25-18-12.25-20.74V51.7Z"></path><rect class="cls-pucmm4" x="38.99" y="31.97" width="50.3" height="19.73"></rect><path class="cls-pucmm5" d="M64.47,82.27V80.16H89.29C88.56,95.12,72.58,105,64.47,105Z"></path><rect class="cls-pucmm6" x="64.47" y="51.7" width="24.82" height="24.82"></rect><path class="cls-pucmm5" d="M51.52,56.89l-.85,1.06a4,4,0,0,0-2,2.53,6.77,6.77,0,0,0-.14,2H50.1v2.36H47.82a.9.9,0,0,1-.43-1,.84.84,0,0,1,.43-.57,1.68,1.68,0,0,0-2.06.73,1.51,1.51,0,0,0-.14,1.38A2.88,2.88,0,0,0,44,66a2.3,2.3,0,0,0-.78.74,2.69,2.69,0,0,0,.78.81,2.63,2.63,0,0,0,1.56.57,1.5,1.5,0,0,0,.14,1.38,1.69,1.69,0,0,0,2.06.73.85.85,0,0,1-.43-.57.89.89,0,0,1,.43-1H50.1v3.58H47.25l4.27,21.34,4.27-21.34H52.94V68.7h2.28a.89.89,0,0,1,.43,1,.84.84,0,0,1-.43.57,1.69,1.69,0,0,0,2.06-.73,1.51,1.51,0,0,0,.14-1.38A2.63,2.63,0,0,0,59,67.56a2.68,2.68,0,0,0,.78-.81A2.29,2.29,0,0,0,59,66a2.88,2.88,0,0,0-1.56-.57,1.51,1.51,0,0,0-.14-1.38,1.69,1.69,0,0,0-2.06-.73.84.84,0,0,1,.43.57.89.89,0,0,1-.43,1H52.94V62.51H54.5a6.91,6.91,0,0,0-.14-2,4,4,0,0,0-2-2.53Z"></path><path class="cls-pucmm3" d="M53.64,45.61l31.29-12,.5,1.24L54,46.75c1.35.33,2,2.81.39,3.54-2.41,1.1-3-1.45-2.46-2.67,0,1.57-2.79,3.46-3.92.9s2.31-3.47,3.39-2.29c-1.39-.54-1.82-3.12,0-3.82C53.84,41.46,54.55,44.37,53.64,45.61Z"></path><path d="M53.3,50.83a1.65,1.65,0,0,1-1.25-.53,2.31,2.31,0,0,1-.54-1.13,2.67,2.67,0,0,1-1.87.88,2.08,2.08,0,0,1-1.89-1.42,2.11,2.11,0,0,1,0-2.11,2.73,2.73,0,0,1,2.41-1.07A2.7,2.7,0,0,1,50,43.69a2.05,2.05,0,0,1,1.31-1.54A2,2,0,0,1,54,43a2.93,2.93,0,0,1,.18,2.08L85.09,33.29l.7,1.75L54.67,46.78a2.5,2.5,0,0,1,.91,1.73,1.91,1.91,0,0,1-1.08,2A2.92,2.92,0,0,1,53.3,50.83ZM52,48.43a2.06,2.06,0,0,0,.44,1.49c.4.44,1,.47,1.82.12A1.4,1.4,0,0,0,55,48.56,1.74,1.74,0,0,0,53.93,47l-.85-.21,32-12.08L84.78,34,52.88,46.2l.54-.74a2.26,2.26,0,0,0,.09-2.17,1.34,1.34,0,0,0-1.24-.79,2.31,2.31,0,0,0-.81.17,1.51,1.51,0,0,0-1,1.14,2.14,2.14,0,0,0,.5,1.82,1.69,1.69,0,0,1,.6.41l-.3.44a1.9,1.9,0,0,1-.6-.38A2,2,0,0,0,50,46a2.11,2.11,0,0,0-1.76.83,1.6,1.6,0,0,0,0,1.59,1.56,1.56,0,0,0,1.4,1.1,2.25,2.25,0,0,0,1.83-1.21,2.54,2.54,0,0,1,.2-.78l.52.11A1.89,1.89,0,0,1,52,48.43Z"></path><polygon class="cls-pucmm3" points="82.5 36.02 84.23 38.25 84.77 39.67 83.84 40.02 83.3 38.61 82.48 38.92 83.03 40.34 82.04 40.72 81.53 39.38 80.48 39.78 80.99 41.12 80.01 41.5 79.49 40.16 78.56 40.52 79.08 41.85 78.26 42.16 77.66 40.59 77.28 38.03 82.5 36.02"></polygon><path d="M78.11,42.52l-.7-1.83L77,37.85l5.62-2.16,1.89,2.46.64,1.67-1.44.55L83.14,39l-.31.12.54,1.41-1.49.58-.51-1.34-.54.21.51,1.34-1.49.57-.51-1.34-.42.16L79.43,42Zm-.53-4.31.35,2.35.49,1.26.31-.12-.51-1.33,1.44-.56.51,1.34.48-.18-.51-1.34,1.55-.6.51,1.34.48-.19-.54-1.42,1.32-.51L84,39.67l.42-.16L84,38.39l-1.58-2Z"></path><path class="cls-pucmm1" d="M74.16,45.61l-31.29-12-.49,1.24L73.81,46.75c-1.35.33-2,2.81-.39,3.54,2.41,1.1,3-1.45,2.46-2.67,0,1.57,2.79,3.46,3.93.9S77.48,45,76.41,46.22c1.39-.54,1.82-3.12,0-3.82C74,41.46,73.25,44.37,74.16,45.61Z"></path><path d="M74.49,50.83a2.92,2.92,0,0,1-1.19-.29,1.91,1.91,0,0,1-1.08-2,2.49,2.49,0,0,1,.91-1.73L42,35l.7-1.75L73.62,45.12A2.93,2.93,0,0,1,73.8,43a2,2,0,0,1,2.73-.88,2.06,2.06,0,0,1,1.31,1.54,2.7,2.7,0,0,1-.25,1.76A2.72,2.72,0,0,1,80,46.52,2.11,2.11,0,0,1,80,48.63,2.09,2.09,0,0,1,78.15,50a2.67,2.67,0,0,1-1.87-.88,2.31,2.31,0,0,1-.54,1.13A1.65,1.65,0,0,1,74.49,50.83ZM42.72,34.72l32,12.08-.85.21a1.74,1.74,0,0,0-1.11,1.55A1.4,1.4,0,0,0,73.53,50c.78.36,1.41.32,1.82-.12a2.07,2.07,0,0,0,.44-1.49,1.89,1.89,0,0,1-.19-.82l.52-.11a2.6,2.6,0,0,1,.2.78,2.25,2.25,0,0,0,1.83,1.21,1.56,1.56,0,0,0,1.4-1.1,1.6,1.6,0,0,0,0-1.59A2.11,2.11,0,0,0,77.78,46a2,2,0,0,0-.67.11,1.9,1.9,0,0,1-.6.38l-.3-.44a1.7,1.7,0,0,1,.6-.41,2.14,2.14,0,0,0,.5-1.82,1.51,1.51,0,0,0-1-1.14,2.31,2.31,0,0,0-.81-.17,1.33,1.33,0,0,0-1.23.79,2.26,2.26,0,0,0,.09,2.17l.54.74L43,34Z"></path><polygon class="cls-pucmm1" points="45.29 36.02 43.57 38.25 43.03 39.67 43.96 40.02 44.5 38.61 45.31 38.92 44.77 40.34 45.76 40.72 46.27 39.38 47.32 39.78 46.8 41.12 47.79 41.5 48.3 40.16 49.23 40.52 48.72 41.85 49.54 42.16 50.14 40.59 50.52 38.03 45.29 36.02"></polygon><path d="M49.69,42.52,48.37,42l.51-1.34-.42-.16-.51,1.34-1.5-.57L47,39.94l-.54-.21-.51,1.34-1.49-.58L45,39.08l-.3-.12-.55,1.41-1.44-.55.68-1.74,1.85-2.39,5.62,2.16-.42,2.78Zm-.62-.82.31.12.51-1.32.34-2.29-4.84-1.86-1.57,2-.43,1.13.42.16.54-1.42,1.32.51-.54,1.42.48.19L46.11,39l1.56.6L47.15,41l.48.18.51-1.34,1.44.56Z"></path><polygon class="cls-pucmm7" points="63.77 37.77 63.77 36.53 62.8 36.53 62.8 35.63 63.77 35.63 63.77 34.69 64.68 34.69 64.68 35.63 65.71 35.63 65.72 36.54 64.67 36.54 64.67 37.77 63.77 37.77"></polygon><path d="M64.95,38H63.5V36.8h-1V35.35h1v-.94h1.45v.94h1v1.46h-1ZM64,37.5h.36V36.27h1V35.9h-1V35H64v.94h-1v.36h1Z"></path><path class="cls-pucmm3" d="M60.1,48.31,58.74,40l-.41-2.15c.24-.11.6,1.15.82,1.06a11.73,11.73,0,0,1,5.21-1,11.79,11.79,0,0,1,5.09.94c.26.11.52-1.14.8-1L68.61,48.31a10.88,10.88,0,0,0-8.51,0Z"></path><path d="M68.82,48.7l-.32-.14a10.63,10.63,0,0,0-8.29,0l-.32.14-1.41-8.64L58,37.71l.34-.12c.28,0,.44.31.64.7.05.1.12.24.18.33a12,12,0,0,1,5.18-1,12.07,12.07,0,0,1,5.07.91c0-.08.11-.22.15-.31.17-.37.32-.68.62-.68h.06l.28.12Zm-10-9.63L59,40l1.3,8a9.46,9.46,0,0,1,4-.76,9.46,9.46,0,0,1,4,.75L69.79,39a.4.4,0,0,1-.32.16l-.14,0a11.58,11.58,0,0,0-5-.92,11.43,11.43,0,0,0-5.1,1l-.13,0A.39.39,0,0,1,58.84,39.07Z"></path><path d="M69.64,41.51a15.87,15.87,0,0,0-5.4-1.32,15.11,15.11,0,0,0-5.31,1.15l-.21-.5a15.42,15.42,0,0,1,5.52-1.2A16.41,16.41,0,0,1,69.85,41Z"></path><path d="M69,45.15a12.11,12.11,0,0,0-4.74-1.07,11.05,11.05,0,0,0-4.56,1l-.21-.5a11.55,11.55,0,0,1,4.77-1,12.66,12.66,0,0,1,5,1.11Z"></path><polygon points="60.29 40.59 60.03 39.97 60.15 39.49 60.6 39.73 60.87 40.39 61.37 40.18 61.02 39.35 59.8 38.67 59.45 40.01 59.79 40.8 60.29 40.59"></polygon><polygon points="62.58 40.03 62.48 39.34 62.78 38.87 63.21 39.24 63.31 39.95 63.85 39.88 63.72 38.97 62.65 38.03 61.92 39.23 62.04 40.1 62.58 40.03"></polygon><polygon points="65.18 39.29 65.62 38.89 65.94 39.4 65.83 40.15 66.37 40.22 66.5 39.28 65.72 38.05 64.67 39.02 64.54 39.93 65.08 40.01 65.18 39.29"></polygon><polygon points="67.83 39.69 68.29 39.45 68.43 39.96 68.14 40.62 68.64 40.84 69.01 40 68.63 38.65 67.41 39.3 67.05 40.1 67.55 40.32 67.83 39.69"></polygon><polygon points="67.57 44.16 68.08 44.34 68.46 43.23 68.94 42.74 69.04 43.43 68.65 44.58 69.17 44.75 69.6 43.48 69.33 41.57 68.03 42.9 67.57 44.16"></polygon><polygon points="67.29 44.25 67.61 42.88 67.13 40.94 65.92 42.43 65.57 43.8 66.1 43.92 66.38 42.72 66.86 42.13 67.05 42.88 66.76 44.13 67.29 44.25"></polygon><polygon points="63.53 43.71 64.07 43.73 64.11 42.53 64.45 41.88 64.75 42.55 64.72 43.8 65.26 43.82 65.3 42.44 64.47 40.64 63.6 42.33 63.53 43.71"></polygon><polygon points="61.5 44.08 62.04 43.98 61.82 42.78 62.03 42.03 62.52 42.66 62.74 43.91 63.28 43.81 63.04 42.49 61.8 40.85 61.26 42.75 61.5 44.08"></polygon><polygon points="59.97 44.53 59.64 43.34 59.76 42.59 60.28 43.16 60.63 44.4 61.15 44.25 60.79 42.95 59.41 41.4 59.08 43.37 59.45 44.67 59.97 44.53"></polygon><polygon points="60.19 45.06 59.75 46.86 60.07 48.07 60.59 47.94 60.31 46.85 60.49 46.14 61.01 46.68 61.3 47.8 61.83 47.67 61.5 46.4 60.19 45.06"></polygon><polygon points="62.83 44.5 62.13 46.19 62.26 47.43 62.8 47.37 62.68 46.27 62.96 45.6 63.4 46.2 63.52 47.34 64.06 47.28 63.92 46 62.83 44.5"></polygon><polygon points="64.74 46.07 64.65 47.27 65.19 47.31 65.27 46.25 65.67 45.66 65.99 46.31 65.91 47.41 66.45 47.45 66.54 46.2 65.74 44.57 64.74 46.07"></polygon><polygon points="67.32 46.5 67.02 47.65 67.54 47.79 67.81 46.77 68.31 46.27 68.5 46.96 68.23 48.02 68.75 48.15 69.07 46.95 68.57 45.23 67.32 46.5"></polygon><path d="M38.72,31.7V78.83c0,15.89,18.33,26.42,25.75,26.42,8.81,0,25.09-10.76,25.09-26.09V31.7Zm50.3.55V51.43H39.26V32.24Zm0,47.65H64.74V76.77H89v2.4C89,79.41,89,79.65,89,79.89ZM47.74,68.42l-.07,0a1.16,1.16,0,0,0-.55,1.26,1.09,1.09,0,0,0,.14.35A1.43,1.43,0,0,1,46,69.37a1.24,1.24,0,0,1-.12-1.16l.11-.33-.35,0a2.37,2.37,0,0,1-1.42-.52,2.4,2.4,0,0,1-.61-.59,2.32,2.32,0,0,1,.6-.51,2.6,2.6,0,0,1,1.44-.52l.34,0-.11-.32A1.24,1.24,0,0,1,46,64.2a1.37,1.37,0,0,1,1.27-.71,1,1,0,0,0-.14.35,1.16,1.16,0,0,0,.55,1.26l.07,0h2.63V62.23H48.79a5.65,5.65,0,0,1,.14-1.68,3.73,3.73,0,0,1,1.87-2.37l.71-.86.64.8.07.06a3.72,3.72,0,0,1,1.87,2.37,5.82,5.82,0,0,1,.14,1.68H52.67v2.91h2.62l.06,0a1.17,1.17,0,0,0,.55-1.26,1,1,0,0,0-.14-.35A1.42,1.42,0,0,1,57,64.2a1.23,1.23,0,0,1,.12,1.16l-.1.32.34,0a2.66,2.66,0,0,1,1.48.56,2.06,2.06,0,0,1,.56.48,2.34,2.34,0,0,1-.61.59,2.37,2.37,0,0,1-1.42.52l-.35,0,.11.33A1.23,1.23,0,0,1,57,69.37a1.46,1.46,0,0,1-1.27.71,1,1,0,0,0,.14-.35,1.15,1.15,0,0,0-.55-1.26l-.07,0H52.67v4.13h2.79L51.52,92.24,47.58,72.55h2.79V68.42Zm4,25.23L56.12,72h-2.9V69h1.92a.61.61,0,0,1,.24.65c0,.17-.1.25-.31.4l-.45.3.51.18a2,2,0,0,0,2.39-.84,1.71,1.71,0,0,0,.25-1.29,2.9,2.9,0,0,0,1.38-.59,2.94,2.94,0,0,0,.85-.89l.1-.15-.1-.15a2.56,2.56,0,0,0-.86-.81,3,3,0,0,0-1.38-.58,1.71,1.71,0,0,0-.25-1.29,2,2,0,0,0-2.39-.85l-.5.18.44.3c.21.14.28.23.31.4a.61.61,0,0,1-.24.66H53.21V62.78h1.54l0-.25a7,7,0,0,0-.15-2.14,4.28,4.28,0,0,0-2.07-2.65l-.76-.95V52H64.2v52.72c-3.07-.1-7.85-1.9-12.41-5.07Zm13-17.43V52H89V76.22ZM39.26,78.83V52h12v4.82l-.76.94a4.24,4.24,0,0,0-2.07,2.65,6.94,6.94,0,0,0-.16,2.14l0,.25h1.55V64.6H47.9a.62.62,0,0,1-.24-.66c0-.16.1-.25.31-.4l.44-.3-.5-.18a2,2,0,0,0-2.39.85,1.71,1.71,0,0,0-.25,1.29,3.19,3.19,0,0,0-1.43.61,2.44,2.44,0,0,0-.81.77l-.1.15.1.15a3,3,0,0,0,.85.89,2.91,2.91,0,0,0,1.38.59,1.71,1.71,0,0,0,.25,1.29,2,2,0,0,0,2.38.84l.51-.18L48,70c-.21-.14-.28-.23-.31-.4A.61.61,0,0,1,47.9,69h1.92v3H46.92l4.33,21.64v5.59C45,94.71,39.26,87.61,39.26,78.83ZM64.74,104.7V80.43H89C88.12,94.61,73.17,104.49,64.74,104.7Z"></path></g></g></svg>