<svg xmlns="http://www.w3.org/2000/svg" height="187.33" width="341.35" version="1">
    <g stroke="#A9A9A9" fill="none">
        <path stroke-linejoin="round"
              d="M125.144 29.783c1.17-.902 12.12-15.68 42.31-21.728 23.71-5.101 32.51-2.893 57.89-.017 61.64 41.406 61.6 41.144 111.01 75.026-.15 15.151.4 19.331 0 27.881-59.73-4.42-83.98 12.42-118.14 32.67-53.26-2.82-109.56 14.6-138.36 35.05-13.606 7.04-11.307 1.79-12.081 1.61-.866-.21-61.982-103.2-62.704-104.65-.845-1.686 7.311-23.185 8.224-23.641.946-.473 10.769-14.808 43.894-24.402 37.817-10.951 67.947-.529 69.337.165 2.92 1.462 81.73 85.068 82.97 86.308-41.67-.63-92.08 2.1-132.02 32.75-.897 1.57-58.812-95.235-60.004-96.427"
              stroke-width="10"/>
        <path d="M210.144 113.595c34.11-30.243 80.98-36.709 124.86-30.827" stroke-linecap="round" stroke-width="11"/>
        <path d="M78.216 145.875c-4.172 3.56-10.181 35.01-7.627 34.65" stroke-width="11"/>
    </g>
</svg>
